<?xml version="1.0" encoding="UTF-8"?>
<svg width="41px" height="56px" viewBox="0 0 41 56" version="1.1" xmlns="http://www.w3.org/2000/svg" xmlns:xlink="http://www.w3.org/1999/xlink">
    <!-- Generator: Sketch 46.2 (44496) - http://www.bohemiancoding.com/sketch -->
    <title>icon_team</title>
    <desc>Created with Sketch.</desc>
    <defs></defs>
    <g id="Page-1" stroke="none" stroke-width="1" fill="none" fill-rule="evenodd">
        <g id="icon_team" fill-rule="nonzero" fill="#463E38">
            <path d="M20.656,23.984 C27.147,23.984 32.408,18.722 32.408,12.232 C32.408,5.742 27.146,0.481 20.656,0.481 C14.166,0.481 8.902,5.743 8.902,12.233 C8.902,18.723 14.166,23.984 20.656,23.984 Z M25.641,24.785 L15.669,24.785 C7.372,24.785 0.622,31.536 0.622,39.833 L0.622,52.028 L0.653,52.219 L1.493,52.482 C9.411,54.956 16.29,55.781 21.952,55.781 C33.011,55.781 39.421,52.628 39.816,52.427 L40.601,52.03 L40.685,52.03 L40.685,39.833 C40.688,31.536 33.938,24.785 25.641,24.785 Z" id="Shape"></path>
        </g>
    </g>
</svg>