<?xml version="1.0" encoding="UTF-8" standalone="no"?>
<svg width="128px" height="127px" viewBox="0 0 128 127" version="1.1" xmlns="http://www.w3.org/2000/svg" xmlns:xlink="http://www.w3.org/1999/xlink">
    <!-- Generator: Sketch 46.1 (44463) - http://www.bohemiancoding.com/sketch -->
    <title>icon_link</title>
    <desc>Created with Sketch.</desc>
    <defs></defs>
    <g id="Symbols" stroke="none" stroke-width="1" fill="none" fill-rule="evenodd">
        <g id="icon_link" transform="translate(-9.000000, -4.000000)" fill-rule="nonzero">
            <g transform="translate(73.000000, 67.500000) rotate(-45.000000) translate(-73.000000, -67.500000) translate(0.000000, 42.000000)">
                <g id="Group" fill="#463E38">
                    <path d="M52.7589357,40.6756517 L15.0741442,40.6756517 C12.3029903,40.6756517 10.0495244,38.4055787 10.0495244,35.6171966 L10.0495244,15.3830899 C10.0495244,12.5947079 12.3029903,10.3246348 15.0741442,10.3246348 L52.7592203,10.3246348 C55.5303743,10.3246348 57.7838402,12.5947079 57.7838402,15.3830899 L57.7838402,20.4415449 L67.8330799,20.4415449 L67.8330799,15.3830899 C67.8330799,7.01479213 61.0715439,0.207438202 52.7589357,0.207438202 L15.0741442,0.207438202 C6.76153606,0.207438202 0,7.01450562 0,15.3830899 L0,35.6171966 C0,43.9854944 6.76153606,50.7928483 15.0741442,50.7928483 L52.7592203,50.7928483 C61.0715439,50.7928483 67.8333645,43.9857809 67.8333645,35.6171966 L57.7841248,35.6171966 C57.7835556,38.4055787 55.5300897,40.6756517 52.7589357,40.6756517 Z" id="Shape"></path>
                    <path d="M130.641255,0.207438202 L92.9564639,0.207438202 C84.6441404,0.207438202 77.8823197,7.01450562 77.8823197,15.3830899 L77.8823197,20.4415449 L87.9315595,20.4415449 L87.9315595,15.3830899 C87.9315595,12.5947079 90.1850253,10.3246348 92.9561793,10.3246348 L130.641255,10.3246348 C133.412409,10.3246348 135.665875,12.5947079 135.665875,15.3830899 L135.665875,35.6171966 C135.665875,38.4055787 133.412409,40.6756517 130.641255,40.6756517 L92.9564639,40.6756517 C90.1853099,40.6756517 87.9318441,38.4055787 87.9318441,35.6171966 L77.8826043,35.6171966 C77.8826043,43.9854944 84.6441404,50.7928483 92.9567485,50.7928483 L130.641825,50.7928483 C138.954148,50.7928483 145.715969,43.9857809 145.715969,35.6171966 L145.715969,15.3830899 C145.7154,7.01450562 138.953864,0.207438202 130.641255,0.207438202 Z" id="Shape"></path>
                </g>
                <path d="M103.00004,30 C105.761276,30 108,27.7612574 108,25 C108,22.2387426 105.761276,20 103.00004,20 L87.9998786,20 L77.9999595,20 L68.0000405,20 L58.0001214,20 L42.9999595,20 C40.2387245,20 38,22.2387426 38,25 C38,27.7612574 40.2387245,30 42.9999595,30 L58.0001214,30 L68.0000405,30 L77.9999595,30 L87.9998786,30 L103.00004,30 Z" id="Shape" fill="#463E38"></path>
                <g id="Group" transform="translate(58.000000, 30.000000)" fill="#3D6274">
                    <rect id="Rectangle-path" x="0.00962264151" y="0.172368421" width="9.99339623" height="4.64605263"></rect>
                    <rect id="Rectangle-path" x="19.9966981" y="0.172368421" width="9.99339623" height="4.64605263"></rect>
                </g>
            </g>
        </g>
    </g>
</svg>