<svg xmlns="http://www.w3.org/2000/svg" width="473.258" height="502" viewBox="0 0 473.258 502"><defs><style>.a{fill:#463e38;}.b{fill:#d92c27;}</style></defs><g transform="translate(-226 -157)"><g transform="translate(211.629 157)"><path class="a" d="M478.482,448.6,376.882,347a106.291,106.291,0,0,0-35.465-138.46V92.53a10,10,0,0,0-2.929-7.071L255.959,2.929A10,10,0,0,0,248.888,0H24.371a10,10,0,0,0-10,10V437.735a10,10,0,0,0,10,10H331.417a10,10,0,0,0,10-10V400.013l92.825,92.825a31.281,31.281,0,0,0,44.24-44.237ZM307.276,82.53H258.889V34.143l24.193,24.193Zm14.141,313.847v31.358H34.371V20H238.888V92.53a10,10,0,0,0,10,10h72.529v95.662l.009.014a106.293,106.293,0,1,0,0,198.156Zm7.531-26.086q-1.272.8-2.574,1.563a86.288,86.288,0,1,1,29.558-28.547A87.244,87.244,0,0,1,328.948,370.291ZM464.339,478.7a11.283,11.283,0,0,1-15.955,0L349.678,379.99h-.008a107.9,107.9,0,0,0,15.961-15.96v.008l98.707,98.707A11.293,11.293,0,0,1,464.339,478.7Z"/><path class="a" d="M246.838,238.4a68.644,68.644,0,0,0-32.964,58.882,10,10,0,0,0,20,0A48.778,48.778,0,0,1,257.3,255.447,10,10,0,0,0,246.838,238.4Z"/><path class="a" d="M317.708,237.624a69.015,69.015,0,0,0-34.781-9.392,10,10,0,0,0,0,20,49,49,0,0,1,24.693,6.662,10,10,0,0,0,10.088-17.27Z"/></g><circle class="b" cx="68.5" cy="68.5" r="68.5" transform="translate(463 522)"/></g></svg>