<?xml version="1.0" encoding="UTF-8"?>
<svg width="41px" height="40px" viewBox="0 0 41 40" version="1.1" xmlns="http://www.w3.org/2000/svg" xmlns:xlink="http://www.w3.org/1999/xlink">
    <!-- Generator: Sketch 50.2 (55047) - http://www.bohemiancoding.com/sketch -->
    <title>icon_edit_notification</title>
    <desc>Created with Sketch.</desc>
    <defs></defs>
    <g id="Page-1" stroke="none" stroke-width="1" fill="none" fill-rule="evenodd">
        <g id="icon_edit_notification" fill-rule="nonzero">
            <g id="icon_edit" fill="#463E38">
                <path d="M0.8,40 L4.5,25.1 L27.2,2.4 L38.4,13.6 L15.7,36.3 L0.8,40 Z M7.1,26.5 L4.7,36.1 L14.3,33.7 L34.5,13.5 L27.3,6.3 L7.1,26.5 Z" id="Fill-168"></path>
                <path d="M13.3,35.4 C12.3,31.5 9.3,28.5 5.4,27.5 L6.1,24.7 C11,25.9 14.8,29.7 16,34.6 L13.3,35.4" id="Fill-169"></path>
                <polyline id="Fill-170" points="13 29.9 11 27.8 30.9 7.9 32.9 9.9 13 29.9"></polyline>
                <path d="M2.8,38 L7.2,36.9 C6.8,35.3 5.5,34 3.9,33.6 L2.8,38" id="Fill-171"></path>
                <path d="M36.2,15.7 L25,4.5 L29.5,0 L30.2,0.1 C35.6,0.8 39.9,5.1 40.6,10.5 L40.7,11.2 L36.2,15.7 Z M29.1,4.5 L36.3,11.7 L37.7,10.3 C36.9,6.7 34.1,3.9 30.5,3.1 L29.1,4.5 Z" id="Fill-172"></path>
            </g>
            <ellipse id="notification-dot" fill="#D92C27" cx="16.5" cy="34" rx="4.5" ry="5"></ellipse>
        </g>
    </g>
</svg>