<?xml version="1.0" encoding="UTF-8"?>
<svg width="27px" height="25px" viewBox="0 0 27 25" version="1.1" xmlns="http://www.w3.org/2000/svg" xmlns:xlink="http://www.w3.org/1999/xlink">
    <!-- Generator: Sketch 48.2 (47327) - http://www.bohemiancoding.com/sketch -->
    <title>icon_comment</title>
    <desc>Created with Sketch.</desc>
    <defs></defs>
    <g id="View-Calendar-(Client)---Yearlong---Added-Comment" stroke="none" stroke-width="1" fill="none" fill-rule="evenodd" transform="translate(-1093.000000, -576.000000)">
        <g id="icon_comment_notification" transform="translate(1093.000000, 576.000000)">
            <g>
                <g id="icon_comment" fill="#463E38" fill-rule="nonzero">
                    <path d="M4.92352941,6 L11.2764706,6 C11.5106824,6 11.7,5.776 11.7,5.5 C11.7,5.224 11.5106824,5 11.2764706,5 L4.92352941,5 C4.68931765,5 4.5,5.224 4.5,5.5 C4.5,5.776 4.68931765,6 4.92352941,6 Z" id="Shape"></path>
                    <path d="M18.5,9 L4.9,9 C4.6788,9 4.5,9.224 4.5,9.5 C4.5,9.776 4.6788,10 4.9,10 L18.5,10 C18.7212,10 18.9,9.776 18.9,9.5 C18.9,9.224 18.7212,9 18.5,9 Z" id="Shape"></path>
                    <path d="M18.5,13 L4.9,13 C4.6788,13 4.5,13.224 4.5,13.5 C4.5,13.776 4.6788,14 4.9,14 L18.5,14 C18.7212,14 18.9,13.776 18.9,13.5 C18.9,13.224 18.7212,13 18.5,13 Z" id="Shape"></path>
                    <path d="M21.87,0 L2.43,0 C1.11294,0 0,1.22678571 0,2.67857143 L0,17.4107143 C0,18.8625 1.11294,20.0892857 2.43,20.0892857 L5.67,20.0892857 L5.67,24.5535714 C5.67,24.7379464 5.77287,24.9035714 5.9292,24.9700893 C5.976585,24.9901786 6.025995,25 6.075,25 C6.18678,25 6.296535,24.9486607 6.3747,24.8540179 L10.30401,20.0892857 L21.87,20.0892857 C23.18706,20.0892857 24.3,18.8625 24.3,17.4107143 L24.3,2.67857143 C24.3,1.22678571 23.18706,0 21.87,0 Z M23.49,17.4107143 C23.49,18.3785714 22.74804,19.1964286 21.87,19.1964286 L11.007495,19.1964286 L12.45699,17.3388393 C12.60279,17.1522321 12.583755,16.8700893 12.414465,16.709375 C12.24477,16.5495536 11.989215,16.5700893 11.843415,16.7566964 L9.825705,19.3424107 L6.48,23.3991071 L6.48,19.6428571 C6.48,19.3964286 6.298965,19.1964286 6.075,19.1964286 L2.43,19.1964286 C1.55196,19.1964286 0.81,18.3785714 0.81,17.4107143 L0.81,2.67857143 C0.81,1.71071429 1.55196,0.892857143 2.43,0.892857143 L21.87,0.892857143 C22.74804,0.892857143 23.49,1.71071429 23.49,2.67857143 L23.49,17.4107143 Z" id="Shape"></path>
                </g>
                <ellipse id="notification-dot" fill="#D92C27" cx="22.5" cy="18" rx="4.5" ry="5"></ellipse>
            </g>
        </g>
    </g>
</svg>