<svg xmlns="http://www.w3.org/2000/svg" width="48" height="59" viewBox="0 0 48 59">
  <defs>
    <style>
      .cls-1 {
        fill: #d92c27;
      }
    </style>
  </defs>
  <g id="icon_delete" transform="translate(-5.5)">
    <path id="Path_1" data-name="Path 1" class="cls-1" d="M29.5,51a1,1,0,0,0,1-1V17a1,1,0,0,0-2,0V50A1,1,0,0,0,29.5,51Z"/>
    <path id="Path_2" data-name="Path 2" class="cls-1" d="M19.5,51a1,1,0,0,0,1-1V17a1,1,0,0,0-2,0V50A1,1,0,0,0,19.5,51Z"/>
    <path id="Path_3" data-name="Path 3" class="cls-1" d="M39.5,51a1,1,0,0,0,1-1V17a1,1,0,0,0-2,0V50A1,1,0,0,0,39.5,51Z"/>
    <path id="Path_4" data-name="Path 4" class="cls-1" d="M52.5,6H38.456a7.948,7.948,0,0,0-1.813-4.711A4.23,4.23,0,0,0,33.5,0h-10a4.23,4.23,0,0,0-3.144,1.289A7.948,7.948,0,0,0,18.543,6H6.5a1,1,0,0,0,0,2H8.541l1.915,46.021A4.852,4.852,0,0,0,15.364,59H43.636a4.846,4.846,0,0,0,4.907-4.958L50.459,8H52.5a1,1,0,0,0,0-2ZM21.792,2.681A2.267,2.267,0,0,1,23.5,2h10a2.267,2.267,0,0,1,1.708.681A5.885,5.885,0,0,1,36.447,6H20.553A5.891,5.891,0,0,1,21.792,2.681Zm24.752,51.3A2.9,2.9,0,0,1,43.636,57H15.364c-2.734,0-2.9-2.717-2.909-3.042L10.542,8H48.457Z"/>
  </g>
</svg>
