<svg xmlns="http://www.w3.org/2000/svg" width="55.867" height="53.233" viewBox="0 0 55.867 53.233">
  <defs>
    <style>
      .cls-1 {
        fill: #7b7b7b;
      }
    </style>
  </defs>
  <path id="star1" class="cls-1" d="M11.287,54.548a1,1,0,0,1-.985-1.169l3.091-18.018L.3,22.6a1,1,0,0,1,.555-1.7l18.09-2.629L27.038,1.875a1,1,0,0,1,.9-.558h0a1,1,0,0,1,.9.558l8.09,16.393L55.011,20.9a1,1,0,0,1,.555,1.7L42.475,35.363l3.09,18.017a1,1,0,0,1-1.451,1.054l-16.18-8.506L11.752,54.434A1.008,1.008,0,0,1,11.287,54.548ZM3.149,22.584,15.165,34.3a1,1,0,0,1,.287.885L12.615,51.72l14.854-7.808a1,1,0,0,1,.931,0L43.252,51.72,40.416,35.182A1,1,0,0,1,40.7,34.3L52.719,22.584l-16.6-2.413a1,1,0,0,1-.753-.547L27.934,4.578,20.507,19.625a1,1,0,0,1-.753.547Z" transform="translate(0 -1.317)"/>
</svg>
