<?xml version="1.0" encoding="UTF-8" standalone="no"?>
<svg width="33px" height="33px" viewBox="0 0 33 33" version="1.1" xmlns="http://www.w3.org/2000/svg" xmlns:xlink="http://www.w3.org/1999/xlink">
    <!-- Generator: Sketch 46 (44423) - http://www.bohemiancoding.com/sketch -->
    <title>home_icon</title>
    <desc>Created with Sketch.</desc>
    <defs></defs>
    <g id="Page-1" stroke="none" stroke-width="1" fill="none" fill-rule="evenodd">
        <g id="home_icon" fill-rule="nonzero" fill="#D92C27">
            <path d="M27.649,33 L20.433,33 C20.157,33 19.933,32.776 19.933,32.5 L19.933,22.32 L13.066,22.32 L13.066,32.5 C13.066,32.776 12.842,33 12.566,33 L5.348,33 C5.072,33 4.848,32.776 4.848,32.5 L4.848,15.893 L0.73,15.893 C0.525,15.893 0.341,15.768 0.265,15.578 C0.19,15.388 0.238,15.171 0.386,15.03 L16.154,0.137 C16.347,-0.046 16.648,-0.045 16.842,0.137 L32.614,15.03 C32.762,15.171 32.81,15.388 32.735,15.578 C32.659,15.768 32.475,15.893 32.27,15.893 L28.149,15.893 L28.149,32.5 C28.149,32.776 27.925,33 27.649,33 Z M20.933,32 L27.149,32 L27.149,15.393 C27.149,15.117 27.373,14.893 27.649,14.893 L31.012,14.893 L16.498,1.188 L1.988,14.893 L5.348,14.893 C5.624,14.893 5.848,15.117 5.848,15.393 L5.848,32 L12.066,32 L12.066,21.82 C12.066,21.544 12.29,21.32 12.566,21.32 L20.433,21.32 C20.709,21.32 20.933,21.544 20.933,21.82 L20.933,32 Z" id="Shape"></path>
        </g>
    </g>
</svg>