<svg xmlns="http://www.w3.org/2000/svg" xmlns:xlink="http://www.w3.org/1999/xlink" width="24" height="24" viewBox="0 0 24 24"><defs><style>.a{clip-path:url(#b);}.b,.c{fill:#fff;}.b{stroke:#7b7b7b;}.c,.d{stroke-linejoin:round;}.d{fill:#e6e6e6;}.e,.g{stroke:none;}.f{fill:none;}.g{fill:#7b7b7b;}</style><clipPath id="b"><rect width="24" height="24"/></clipPath></defs><g id="a" class="a"><g class="b" transform="translate(0 5)"><rect class="e" width="19" height="19"/><rect class="f" x="0.5" y="0.5" width="18" height="18"/></g><g class="c" transform="translate(5)"><path class="e" d="M 6.466996192932129 18.54082489013672 L 0.5015150308609009 12.5804615020752 L 0.5000602006912231 0.5000019669532776 L 18.5 0.5000019669532776 L 18.5 18.50162506103516 L 6.466996192932129 18.54082489013672 Z"/><path class="g" d="M 1.000120162963867 1.000001907348633 L 1.001489639282227 12.37321090698242 L 6.67330265045166 18.04015731811523 L 18 18.00325965881348 L 18 1.000001907348633 L 1.000120162963867 1.000001907348633 M 0 1.9073486328125e-06 L 19 1.9073486328125e-06 L 19 19.00000190734863 L 6.260689735412598 19.04150199890137 L 0.001539230346679688 12.78772163391113 L 0 1.9073486328125e-06 Z"/></g><g class="d" transform="translate(5 11.203)"><path class="e" d="M 7.083405494689941 7.297260761260986 L 6.468116283416748 7.297260761260986 L 0.5000001788139343 1.328076839447021 L 0.5000001788139343 0.547295868396759 L 6.519814968109131 1.094809651374817 L 7.083405494689941 7.297260761260986 Z"/><path class="g" d="M 6.521983623504639 6.643974304199219 L 6.059571266174316 1.555018901824951 L 1.000000238418579 1.094841003417969 L 1.000000238418579 1.121003031730652 L 6.521983623504639 6.643974304199219 M 7.630900382995605 7.797260761260986 L 6.260980129241943 7.797260761260986 L 1.91497804280516e-07 1.535160660743713 L 1.91497804280516e-07 -0.000239305489230901 L 6.98006010055542 0.6346107125282288 L 7.630900382995605 7.797260761260986 Z"/></g></g></svg>