<svg xmlns="http://www.w3.org/2000/svg" xmlns:xlink="http://www.w3.org/1999/xlink" width="648" height="324" viewBox="0 0 648 324"><defs><style>.a{clip-path:url(#b);}.b{fill:#dfdfdf;}.c{fill:#707070;}.d{fill:#f6f6f6;}</style><clipPath id="b"><rect width="648" height="324"/></clipPath></defs><g id="a" class="a"><rect class="d" width="648" height="324"/><path class="b" d="M0,0H648V324H0Z"/><path class="c" d="M59.628,138.042H1.918a5,5,0,0,1-3.68-8.384L41.774,82.306a5,5,0,0,1,7.361,0l1.574,1.712L71.723,58.277a5,5,0,0,1,7.746,0L95.618,78.058,155.36.4a5,5,0,0,1,7.926,0l99.7,129.593a5,5,0,0,1-3.964,8.049Z" transform="translate(193.643 94.12)"/><path class="c" d="M20,0A20,20,0,1,1,0,20,20,20,0,0,1,20,0Z" transform="translate(208.021 91)"/></g></svg>